<?xml version="1.0" encoding="UTF-8" standalone="no"?>
<!-- Created with Inkscape (http://www.inkscape.org/) -->

<svg
   width="793.70081"
   height="1122.5195"
   viewBox="0 0 744.09452 1052.362"
   id="svg5904"
   version="1.1"
   xmlns="http://www.w3.org/2000/svg"
   xmlns:svg="http://www.w3.org/2000/svg"
   xmlns:rdf="http://www.w3.org/1999/02/22-rdf-syntax-ns#"
   xmlns:cc="http://creativecommons.org/ns#"
   xmlns:dc="http://purl.org/dc/elements/1.1/">
  <defs
     id="defs5906" />
  <metadata
     id="metadata5909">
    <rdf:RDF>
      <cc:Work
         rdf:about="">
        <dc:format>image/svg+xml</dc:format>
        <dc:type
           rdf:resource="http://purl.org/dc/dcmitype/StillImage" />
      </cc:Work>
    </rdf:RDF>
  </metadata>
  <g
     id="layer1">
    <g
       id="g6492"
       transform="translate(-324.9107,-298.07245)"
       style="fill:#fcab2a;fill-opacity:1">
      <path
         style="fill:#fcab2a;fill-opacity:1"
         d="m 626.36695,884.61333 c -44.63809,-12.5554 -82.68152,-59.23806 -105.99833,-130.06934 -4.31901,-13.12022 -7.85275,-24.78439 -7.85275,-25.92037 0,-1.13598 -3.92283,-6.21324 -8.7174,-11.28279 -9.78786,-10.34921 -15.78375,-24.02227 -17.63142,-40.20675 -0.67775,-5.93668 -3.37631,-14.46678 -6.36131,-20.10801 -7.61795,-14.39688 -10.87073,-27.3313 -10.18058,-40.48229 l 0.60004,-11.43387 -22.49504,-1.16433 c -66.90653,-3.46297 -101.27698,-7.37988 -111.59988,-12.71806 -10.45019,-5.40399 -13.75243,-16.89977 -8.03216,-27.96155 9.78724,-18.92645 72.31906,-47.35418 132.67916,-60.31759 17.56457,-3.77229 22.98124,-5.60299 23.09972,-7.80709 0.0851,-1.5836 0.72614,-20.69535 1.42446,-42.47055 1.035,-32.27332 1.84192,-40.66343 4.36556,-45.39185 1.90398,-3.5674 8.86416,-9.59931 18.07866,-15.66753 17.19794,-11.32573 36.55935,-30.91809 42.32647,-42.83135 2.17593,-4.49487 4.6975,-12.72699 5.60348,-18.29358 4.60639,-28.30273 16.42461,-32.39223 93.61008,-32.39223 77.18546,0 89.00369,4.0895 93.61008,32.39223 0.90597,5.56659 3.42754,13.79871 5.60348,18.29358 5.76711,11.91326 25.12852,31.50562 42.32646,42.83135 9.21809,6.07059 16.17332,12.09874 18.07703,15.66753 2.97162,5.57067 3.66781,15.83445 5.77673,85.16299 l 0.1697,5.57868 22.94494,4.92782 c 60.36009,12.96341 122.89193,41.39114 132.67916,60.31759 5.72027,11.06178 2.41804,22.55756 -8.03215,27.96155 -10.32292,5.33818 -44.69336,9.25509 -111.59988,12.71806 l -22.49504,1.16433 0.60004,11.43387 c 0.69009,13.14997 -2.5622,26.08372 -10.1796,40.48229 -3.49874,6.61338 -5.53034,13.63759 -6.25132,21.61365 -1.5897,17.58658 -7.4898,31.55908 -17.40409,41.21589 -7.67419,7.47491 -9.03731,10.1938 -15.85828,31.631 -8.59856,27.02396 -24.7158,60.75764 -37.95235,79.43502 -17.79741,25.11298 -38.59614,42.49743 -61.15924,51.11949 -13.24308,5.0606 -40.32234,6.35588 -53.77443,2.57221 z m 72.77306,-181.00046 c 19.9448,-9.9477 7.94521,-20.65074 7.94521,-20.65074 l -23.24417,5.67318 c 0,0 -16.16898,8.86825 -20.05419,10.01013 -9.04822,2.65931 -15.97305,0.0564 -24.51263,-1.44561 -4.15419,-0.73066 -10.21309,-5.27453 -14.47678,-5.99487 -4.26369,-0.72035 -11.1715,-0.30831 -16.5853,-2.17094 -5.4138,-1.86262 -17.82962,-2.0925 -18.33099,-1.59115 -1.50542,1.50542 8.14217,13.75432 17.67481,19.87143 14.90689,9.56571 27.79675,13.87378 45.49153,13.20133 13.68889,-0.52021 34.49164,-11.11668 46.09251,-16.90276 z"
         id="path6498" />
    </g>
    <g
       id="g7813"
       transform="translate(1021.3456,-351.8061)">
      <g
         transform="translate(-1068.5714,120)"
         id="g7808">
        <g
           id="g7819">
          <path
             id="path6500"
             d="m 359.73009,802.92377 c -40.56783,-7.0161 -77.86006,-51.2517 -100.27302,-118.9425 -3.39886,-10.2652 -7.18422,-23.1523 -8.41187,-28.6381 -1.92709,-8.6111 -3.11447,-10.4528 -8.68854,-13.4765 -8.56638,-4.64693 -14.27872,-16.19503 -16.42053,-33.19581 -1.19947,-9.52088 -3.53656,-17.01973 -7.93327,-25.45487 -12.00024,-23.02257 -12.41581,-42.09709 -1.09942,-50.46366 7.0339,-5.20039 7.13214,-10.46243 0.19534,-10.46243 -2.82424,0 -21.65258,-0.80908 -41.84077,-1.79796 -64.97885,-3.18289 -100.335344,-6.80957 -108.384894,-11.11757 -3.16354,-1.69309 -2.99049,-2.22413 2.60654,-7.99881 15.02234,-15.49911 75.139914,-39.10399 125.936004,-49.44818 l 28.06981,-5.71617 1.25042,-46.59464 c 0.68774,-25.62705 1.72795,-47.83905 2.31159,-49.35998 0.58364,-1.52094 6.82524,-6.52004 13.87024,-11.10911 29.4139,-19.16003 51.16511,-47.83443 54.09923,-71.31848 0.94811,-7.58839 2.2663,-10.82429 5.18504,-12.72834 13.42919,-8.76057 129.36845,-8.76057 142.79764,0 2.91874,1.90405 4.23693,5.13995 5.18504,12.72834 2.93412,23.48405 24.68533,52.15845 54.09923,71.31848 7.045,4.58907 13.30085,9.62529 13.9019,11.19159 0.60103,1.5663 1.64342,23.77873 2.31638,49.36097 l 1.22357,46.51315 28.065,5.71518 c 50.79144,10.34322 110.90952,33.94872 125.93124,49.44719 5.59702,5.77468 5.77006,6.30572 2.60652,7.99881 -8.20298,4.39011 -41.87043,7.84155 -108.3849,11.1112 -20.18818,0.99239 -38.20671,1.80433 -40.04117,1.80433 -4.57785,0 -4.40456,7.47259 0.27143,11.7043 9.27807,8.39655 8.19237,27.79683 -2.72812,48.74799 -4.16878,7.99789 -6.3724,15.17881 -7.25911,23.65526 -0.70028,6.69417 -2.83605,16.38917 -4.74617,21.54446 -3.37193,9.10063 -11.87905,18.52066 -16.72582,18.52066 -1.38922,0 -3.31512,3.9373 -4.62129,9.4479 -10.25716,43.2735 -32.39991,89.1278 -55.64079,115.2235 -21.40304,24.0322 -50.90264,36.2553 -76.72248,31.7898 z m 34.36576,-26.6261 c 53.88129,-25.6107 94.47916,-136.303 94.47916,-257.60255 v -28.40785 l -33.74256,-1.35474 c -33.76622,-1.35569 -139.03258,-0.0934 -179.31576,2.15013 l -21.40061,1.19193 1.04757,38.85241 c 1.48233,54.97768 8.10899,95.87996 22.89887,141.34037 22.23152,68.3342 57.10867,108.9626 93.53829,108.9626 9.13833,0 14.05965,-1.1229 22.49504,-5.1323 z m -37.43536,-74.8464 c -14.49311,-5.1695 -29.163,-18.8037 -24.86102,-23.1057 1.36644,-1.3664 2.85205,-1.0853 5.12232,0.9693 4.96478,4.493 22.14775,11.9271 30.44367,13.1711 9.77809,1.4664 24.68699,-2.8917 34.6957,-10.142 5.36273,-3.8847 8.31062,-5.0287 9.61001,-3.7293 3.25908,3.259 -6.77292,13.9046 -18.73743,19.8833 -12.42612,6.2094 -24.40941,7.1851 -36.27325,2.9533 z m -10.25412,-38.7766 c -5.4438,-2.0085 -14.30005,-6.6803 -19.68054,-10.3817 -9.36364,-6.4416 -23.8594,-23.62091 -26.22788,-31.08333 -1.59078,-5.01205 -4.16077,-4.39679 -7.71348,1.84667 -5.54682,9.74789 -8.84262,5.6419 -5.76589,-7.18333 3.03305,-12.64322 4.36377,-13.20277 19.34494,-8.13428 11.77029,3.98216 36.93939,9.93017 42.01975,9.93017 1.59752,0 1.9532,-10.43143 1.42555,-41.80872 -0.63018,-37.4755 -0.40052,-41.86775 2.21582,-42.37824 7.23077,-1.41088 12.76908,26.77888 12.82744,65.29113 0.0227,14.9545 -3.71326,24.20927 -1.71996,28.2334 0.69948,1.41215 8.00025,3.25965 11.28809,3.25965 7.41086,0 15.15151,-6.30354 17.94872,-14.61639 2.58502,-7.68229 8.02553,-9.34559 8.02553,-2.45362 0,4.63573 0.24502,4.74808 7.64831,3.50667 4.20658,-0.70537 15.5785,-3.50415 25.27093,-6.21951 l 17.62263,-4.93702 2.38241,4.71162 c 3.51869,6.95885 5.11988,17.71389 2.84639,19.11898 -1.05987,0.65504 -3.57297,-0.90146 -5.58463,-3.45887 -2.01167,-2.55744 -4.22448,-4.64987 -4.91735,-4.64987 -0.69285,0 -2.78434,2.83101 -4.64774,6.29114 -5.51895,10.24807 -23.16242,25.69815 -36.50418,31.96605 -10.76263,5.0563 -14.35468,5.8017 -30.21102,6.2699 -14.56051,0.4299 -19.88556,-0.1658 -27.89384,-3.1205 z m 38.72699,-10.9722 c 12.92923,-2.3901 29.12222,-10.3379 38.70917,-18.99916 7.43512,-6.71718 9.82337,-12.97229 3.99588,-10.46568 -1.73212,0.74506 -9.62788,3.26277 -17.54613,5.59495 -7.91826,2.33218 -17.61855,6.01408 -21.55623,8.182 -9.92886,5.46649 -31.79984,9.4318 -36.34611,-0.57372 -2.31935,-5.10446 -6.40119,-5.17477 -8.04637,-5.17477 -1.6452,0 -8.73758,-1.94411 -15.76085,-4.32027 -12.12763,-4.10306 -12.76961,-4.15123 -12.76961,-0.95809 0,4.05298 15.57766,16.21214 27.56143,21.51314 15.15359,6.7032 26.19569,8.0786 41.75882,5.2016 z M 237.23688,564.09332 c -1.20951,-21.13954 -2.57723,-23.96897 -9.73469,-20.13841 -5.02914,2.69152 -4.52014,14.69239 1.1388,26.8496 4.62251,9.93062 7.98795,15.073 9.1222,13.93875 0.34087,-0.34086 0.10402,-9.63333 -0.52631,-20.64994 z m 276.71011,7.91877 c 6.29611,-13.30869 7.04053,-25.22709 1.75243,-28.05718 -6.40754,-3.42921 -9.12838,-0.52111 -9.12838,9.7566 0,5.19271 -0.53358,14.54634 -1.18574,20.78582 -1.47837,14.14443 1.04037,13.41329 8.56169,-2.48524 z M 148.65947,490.75377 c 113.04298,-21.31816 256.52973,-26.41917 373.00952,-13.26063 17.7068,2.00031 43.19273,5.56545 56.63539,7.92255 13.44267,2.35711 24.68634,4.04051 24.98594,3.74093 1.34866,-1.34868 -41.04589,-12.5098 -68.80574,-18.11434 -66.57745,-13.44156 -114.67708,-17.90956 -178.1804,-16.55131 -57.19018,1.22323 -106.64007,7.14196 -161.94987,19.38401 -24.1063,5.33559 -75.43495,20.75054 -70.88928,21.28938 0.61009,0.0723 11.94759,-1.91244 25.19444,-4.41059 z m 345.31435,-124.7639 c 0,-2.09985 -5.75567,-7.59502 -15.55055,-14.84673 -25.7105,-19.03495 -41.87531,-39.71478 -50.04379,-64.02158 l -4.12581,-12.27709 -11.4797,-1.13936 c -14.82897,-1.47177 -67.51735,-1.47177 -82.34632,0 l -11.4797,1.13936 -4.12581,12.27709 c -8.16848,24.3068 -24.33329,44.98663 -50.04379,64.02158 -16.64194,12.32099 -19.73722,17.39589 -9.70184,15.90682 61.24065,-9.08702 64.31502,-9.32318 121.92311,-9.3655 51.5544,-0.0379 58.78402,0.33647 79.84044,4.1341 12.73411,2.29665 24.88143,4.8735 26.99404,5.72633 6.44758,2.6028 10.13972,2.03657 10.13972,-1.55502 z"
             style="fill:#000000" />
          <circle
             r="26.263966"
             cy="530.61841"
             cx="311.63208"
             id="path6502"
             style="fill:#000000;fill-opacity:1;fill-rule:evenodd;stroke:#000000;stroke-width:1px;stroke-linecap:butt;stroke-linejoin:miter;stroke-opacity:1" />
          <circle
             r="26.263966"
             cy="531.12347"
             cx="432.34531"
             id="path6504"
             style="fill:#000000;fill-opacity:1;fill-rule:evenodd;stroke:#000000;stroke-width:1px;stroke-linecap:butt;stroke-linejoin:miter;stroke-opacity:1" />
        </g>
      </g>
    </g>
    <g
       id="g5731"
       transform="matrix(0.04521972,0,0,0.04521972,193.60078,137.08768)"
       style="fill:#f9b233;fill-opacity:1">
      <path
         style="fill:#fcab2a;fill-opacity:1"
         d="m 2883.9297,1411.8116 c -76.2072,-42.4585 -127.0309,-78.5589 -181.6583,-129.0333 -97.7478,-90.3167 -180.2108,-202.8161 -248.0562,-338.40872 -62.8002,-125.50932 -113.8779,-275.10966 -140.6723,-412.01234 -3.4267,-17.50817 -21.5399,-134.6417 -20.8915,-135.09966 0.1348,-0.0951 24.995,-1.68256 55.245,-3.52753 57.4147,-3.50176 75.4007,-5.22874 99.375,-9.54181 99.5917,-17.9169 225.139,-73.00669 351.1517,-154.08435 27.9105,-17.95784 47.9158,-32.01644 81.9733,-57.60609 16.5,-12.39753 30.8438,-22.53564 31.875,-22.52911 1.0313,0.006 17.3438,11.58529 36.25,25.73061 143.5792,107.42335 306.0058,186.4068 428.75,208.48894 23.9744,4.31307 41.9602,6.04005 99.375,9.54181 30.25,1.84496 55.1144,3.43641 55.254,3.53655 0.5822,0.41729 -17.2324,116.46265 -20.2586,131.96564 -19.8961,101.92461 -55.5649,219.03046 -96.8965,318.125 -66.5254,159.49776 -152.0324,293.52996 -253.0989,396.73206 -72.2345,73.7609 -130.4548,117.7574 -224.1112,169.3586 -13.2612,7.3064 -24.7924,13.245 -25.625,13.1969 -0.8326,-0.049 -13.4238,-6.7231 -27.9805,-14.8333 z"
         id="path5743" />
    </g>
  </g>
</svg>
