<?xml version="1.0" encoding="UTF-8" standalone="no"?>
<!-- Created with Inkscape (http://www.inkscape.org/) -->

<svg
   id="svg5181"
   version="1.1"
   width="512"
   height="512"
   viewBox="0 0 512 512"
   xmlns="http://www.w3.org/2000/svg"
   xmlns:svg="http://www.w3.org/2000/svg"
   xmlns:rdf="http://www.w3.org/1999/02/22-rdf-syntax-ns#"
   xmlns:cc="http://creativecommons.org/ns#"
   xmlns:dc="http://purl.org/dc/elements/1.1/">
  <metadata
     id="metadata5187">
    <rdf:RDF>
      <cc:Work
         rdf:about="">
        <dc:format>image/svg+xml</dc:format>
        <dc:type
           rdf:resource="http://purl.org/dc/dcmitype/StillImage" />
      </cc:Work>
    </rdf:RDF>
  </metadata>
  <defs
     id="defs5185" />
  <g
     id="g5731"
     transform="matrix(0.37562168,0,0,0.37562168,-49.194935,-49.187992)"
     style="fill:#f9b233;fill-opacity:1">
    <path
       style="fill:#ffa500;fill-opacity:1"
       d="M 783.75,1436.7379 C 733.5122,1408.7565 708.1283,1392.6685 673.0284,1366.5641 517.25622,1250.7138 390.03543,1074.1248 299.97728,848.75 c -38.63946,-96.69705 -71.88503,-210.36714 -89.20467,-305 -4.58837,-25.07049 -18.72712,-121.21215 -17.94122,-121.99805 0.37378,-0.37379 26.74901,-2.32214 58.61161,-4.32965 74.6294,-4.70206 92.56467,-7.09148 135.432,-18.04279 86.46267,-22.08861 188.07431,-68.35022 291.875,-132.88445 35.08774,-21.81449 60.87036,-39.5253 99.05796,-68.04566 l 34.71332,-25.9256 32.17686,24.09457 c 46.35017,34.7078 76.69554,55.1826 122.17999,82.438 124.08717,74.35614 238.81387,119.91458 334.37187,132.78045 7.9063,1.06449 40.4444,3.57795 72.307,5.58548 31.8626,2.00751 58.2434,3.96139 58.6239,4.34194 1.266,1.26593 -16.1074,113.38361 -22.389,144.48576 -31.2333,154.64525 -92.3585,322.15076 -166.0921,455.152 -95.3211,171.9412 -219.0639,306.5047 -359.3248,390.746 -12.63338,7.5876 -71.30399,40.3932 -72.08007,40.3034 -0.23097,-0.026 -13.07618,-7.0978 -28.54493,-15.7135 z"
       id="path5747" />
    <path
       style="fill:#ffa500;fill-opacity:1"
       d="M 782.49307,1435.8157 C 731.46788,1407.2645 706.6113,1391.3841 670.33433,1364.16 588.19386,1302.5174 512.75094,1222.6455 447.86479,1128.63 341.08393,973.91201 257.2818,770.83784 215.04744,564.45349 c -4.5648,-22.3065 -23.22082,-141.69678 -22.2875,-142.63009 0.21646,-0.21647 27.38716,-2.12151 60.37931,-4.23342 C 313.3456,413.73601 335.81059,411.25704 362.5,405.52219 484.94024,379.213 638.57299,302.78062 777.20031,199.20855 795.94173,185.20635 811.82659,173.75 812.5,173.75 c 0.67341,0 16.55827,11.45382 35.29969,25.45294 152.04808,113.57402 320.74981,193.6596 446.57531,211.99682 9.625,1.40271 44.4936,4.2783 77.4857,6.39021 32.9922,2.11192 60.1682,4.02223 60.3911,4.24514 0.9417,0.94168 -17.7054,120.17147 -22.3353,142.81218 -35.7789,174.96404 -103.8448,353.6782 -188.6544,495.33241 -65.9319,110.1237 -143.4906,202.7822 -231.42584,276.4821 -30.01219,25.1536 -72.93856,55.8688 -105.46126,75.461 -9.58915,5.7766 -72.06478,40.7068 -72.35798,40.4554 -0.0781,-0.068 -13.36388,-7.5201 -29.52395,-16.5625 z"
       id="path5745" />
    <path
       style="fill:#ffa500;fill-opacity:1"
       d="M 784.15827,1436.3293 C 707.95102,1393.8708 657.12735,1357.7704 602.5,1307.296 504.75214,1216.9793 422.28917,1104.4799 354.44371,968.88734 291.64356,843.37802 240.5659,693.77768 213.77143,556.875 210.34474,539.36683 192.23152,422.2333 192.87997,421.77534 c 0.13477,-0.0951 24.99503,-1.68256 55.24503,-3.52753 57.4147,-3.50176 75.40061,-5.22874 99.375,-9.54181 99.59167,-17.9169 225.13892,-73.00669 351.15165,-154.08435 27.91046,-17.95784 47.91582,-32.01644 81.97335,-57.60609 16.5,-12.39753 30.84375,-22.53564 31.875,-22.52911 1.03125,0.006 17.34375,11.58529 36.25,25.73061 143.57914,107.42335 306.0058,186.4068 428.75,208.48894 23.9744,4.31307 41.9602,6.04005 99.375,9.54181 30.25,1.84496 55.1144,3.43641 55.254,3.53655 0.5822,0.41729 -17.2324,116.46265 -20.2586,131.96564 -19.8961,101.92461 -55.5649,219.03046 -96.8965,318.125 -66.5254,159.4978 -152.0324,293.5299 -253.0989,396.732 -72.23452,73.7609 -130.4548,117.7574 -224.11125,169.3586 -13.26119,7.3064 -24.79244,13.245 -25.625,13.1969 -0.83256,-0.049 -13.42377,-6.7231 -27.98048,-14.8333 z"
       id="path5743" />
    <path
       style="fill:#ffa500;fill-opacity:1"
       d="M 800.625,1402.2244 C 754.28592,1376.3248 726.43646,1358.4854 692.50697,1332.968 634.10409,1289.0448 578.40716,1234.7142 529.1516,1173.6202 433.70635,1055.235 355.96691,906.69435 300.20925,736.16866 278.8909,670.96995 258.37837,592.12351 248.84922,538.75 c -4.96851,-27.82911 -12.50523,-80.59249 -11.61992,-81.34926 0.49264,-0.42111 16.92695,-1.7197 36.5207,-2.88575 53.71602,-3.19673 84.45885,-7.78889 127.5,-19.04514 23.42826,-6.12703 67.6578,-20.94611 93.79523,-31.42604 98.12349,-39.3431 211.28679,-103.56984 299.90162,-170.21157 9.25201,-6.95787 17.49384,-12.3928 18.31518,-12.07763 0.82132,0.31518 10.42547,7.25034 21.34256,15.41146 86.8461,64.92238 198.72251,128.1344 295.35021,166.87774 26.1374,10.47993 70.3669,25.29901 93.7952,31.42604 43.0411,11.25625 73.784,15.84841 127.5,19.04514 19.5938,1.16605 36.024,2.46063 36.5118,2.87685 0.892,0.76112 -6.7462,54.36723 -11.5818,81.28452 -9.7011,54.00068 -30.0846,132.33547 -51.3892,197.4923 -85.4041,261.19441 -221.2881,468.08084 -391.6658,596.32014 -23.6006,17.7636 -46.07841,33.1103 -66.48516,45.3928 -13.07945,7.8723 -54.08458,30.9908 -54.54024,30.7495 -0.1235,-0.065 -5.2871,-2.9485 -11.4746,-6.4067 z m 31.01885,-137.4259 C 982.83536,1163.6269 1104.0769,997.48644 1189.9881,773.75 c 12.5388,-32.65465 33.6156,-95.6043 43.108,-128.75 6.2918,-21.96969 21.9039,-82.45478 21.9039,-84.86098 0,-0.53378 -6.6094,-2.25048 -14.6875,-3.81488 C 1121.0414,533.22619 968.59382,465.41576 832.15471,374.77094 821.99605,368.02192 813.15142,362.5 812.5,362.5 c -0.65142,0 -9.49605,5.52192 -19.65471,12.27094 -136.43911,90.64482 -288.88671,158.45525 -408.15779,181.5532 -8.07812,1.5644 -14.6875,3.2811 -14.6875,3.81488 0,0.53379 3.35773,14.3615 7.46163,30.72826 71.41293,284.80229 208.18375,518.21762 379.89262,648.33102 13.54904,10.2669 53.34814,37.9788 54.9146,38.2368 0.21661,0.036 8.93536,-5.6507 19.375,-12.6366 z M 751.25,1026.1145 v -72.63553 l -3.09277,0.77624 c -24.10085,6.04894 -90.72749,11.97199 -134.85347,11.98836 -14.09972,0.005 -17.1998,-0.31002 -16.66832,-1.69502 0.3591,-0.9358 6.2317,-10.07643 13.05024,-20.3125 22.77298,-34.18716 41.62857,-66.93905 60.36952,-104.86105 11.6038,-23.48009 26.49365,-56.99282 25.68254,-57.80394 -0.2008,-0.20079 -4.37078,0.47755 -9.26661,1.50743 -8.55179,1.79892 -34.39678,4.66807 -56.25547,6.24515 -11.74792,0.84759 -11.52672,1.49242 -3.22581,-9.40368 20.08599,-26.36566 89.85666,-138.31485 160.62599,-257.7293 13.34254,-22.51388 24.54041,-40.93324 24.88416,-40.93188 0.34375,10e-4 11.44845,18.27087 24.67711,40.59893 70.32609,118.70018 140.75908,231.71237 160.83304,258.06225 8.30095,10.8961 8.52215,10.25127 -3.22581,9.40368 -21.85869,-1.57708 -47.70368,-4.44623 -56.25547,-6.24515 -4.89583,-1.02988 -9.06581,-1.70822 -9.26661,-1.50743 -0.20079,0.2008 2.6047,7.38258 6.23441,15.95951 19.48909,46.05223 49.38276,100.99408 79.82193,146.70548 6.8162,10.23607 12.6869,19.3767 13.046,20.3125 0.5314,1.385 -2.5686,1.70025 -16.6684,1.69502 -44.12594,-0.0164 -110.75258,-5.93942 -134.85342,-11.98836 L 873.75,953.47897 v 72.63553 72.6355 H 812.5 751.25 Z"
       id="path5741" />
    <path
       style="fill:#ffa500;fill-opacity:1"
       d="M 788.75,1395.1913 C 712.55865,1352.4238 656.33785,1309.2114 593.125,1244.8304 476.21326,1125.7582 381.86102,967.37094 313.98881,776.25 c -30.46362,-85.78235 -57.08626,-186.16067 -68.2949,-257.5 -6.10746,-38.87198 -9.19044,-60.62535 -8.66912,-61.16904 0.2869,-0.29922 16.68306,-1.5478 36.43592,-2.77461 63.7948,-3.96216 93.9298,-9.09976 150.28929,-25.62224 109.81047,-32.19229 252.15915,-106.73396 367.77204,-192.58589 14.00268,-10.39813 21.43156,-15.18047 22.51723,-14.49548 0.89111,0.56225 10.33119,7.54733 20.97797,15.52242 111.09371,83.2161 257.01436,159.54023 366.23276,191.55895 56.3595,16.52248 86.4945,21.66008 150.2892,25.62224 19.7529,1.22681 36.1492,2.47539 36.436,2.77461 0.5213,0.54369 -2.5617,22.29706 -8.6691,61.16904 -4.1411,26.35661 -12.3636,65.62511 -21.0701,100.625 -52.3429,210.41759 -143.6262,404.9059 -256.506,546.5117 -23.6237,29.6356 -43.534,52.1363 -69.855,78.9437 -63.68519,64.8621 -121.74981,109.3352 -198.24228,151.8386 -10.72075,5.957 -20.28325,10.8243 -21.25,10.816 -0.96675,-0.012 -11.60147,-5.5404 -23.63272,-12.2937 z m 40.48696,-128.4865 C 928.85811,1201.0817 1016.7058,1105.3459 1089.9455,982.58669 1140.9366,897.11904 1187.8808,790.88291 1220.6163,686.875 1233.3779,646.32831 1255,566.88344 1255,560.54059 c 0,-0.82583 -4.7016,-2.36119 -10.9375,-3.57176 -46.0679,-8.94314 -101.574,-25.60626 -153.73,-46.15029 C 1006.2069,477.68184 907.64622,425.34981 824.73545,369.79641 818.7462,365.78339 813.24025,362.5 812.5,362.5 c -0.74025,0 -6.2462,3.28339 -12.23545,7.29641 C 717.21246,425.4445 619.52036,477.31243 534.375,510.96585 486.5868,529.85399 427.31575,547.73482 384.0625,556.31197 375.10577,558.0881 370,559.66962 370,560.66785 c 0,2.72465 14.47311,59.03856 21.05771,81.9341 36.35407,126.40812 86.47374,244.25419 146.03748,343.37699 63.4354,105.56576 137.96239,191.16146 221.88484,254.83906 11.54166,8.7574 52.15784,36.6633 53.38193,36.6766 0.26783,0 7.86158,-4.8525 16.875,-10.7899 z M 751.25,1026.0938 v -72.6563 l -4.0625,0.83431 c -13.82403,2.83905 -34.2163,5.80821 -51.5625,7.50763 -33.0766,3.24051 -99.375,5.78407 -99.375,3.81255 0,-0.36192 4.96969,-8.09629 11.04374,-17.1875 22.89505,-34.26768 44.84804,-72.32373 63.25523,-109.65449 12.15169,-24.64424 26.11703,-56.25068 25.24134,-57.12635 -0.29083,-0.29085 -4.69727,0.3322 -9.79206,1.38456 -8.68723,1.7944 -39.35315,5.067 -56.98145,6.08094 -9.28486,0.53405 -9.29474,0.893 0.3334,-12.12617 13.71021,-18.53895 48.72495,-73.28895 88.79225,-138.83798 17.7697,-29.07075 79.42184,-131.98631 88.1643,-147.17218 3.06254,-5.31968 5.8495,-9.67216 6.19325,-9.67216 0.34375,0 3.12743,4.35248 6.18594,9.67216 8.52527,14.82808 70.11587,117.63183 88.17209,147.17218 40.05056,65.52357 75.08023,120.29723 88.79177,138.83798 9.6281,13.01917 9.6183,12.66022 0.3334,12.12617 -17.6283,-1.01394 -48.29422,-4.28654 -56.98145,-6.08094 -5.09479,-1.05236 -9.50123,-1.67541 -9.79206,-1.38456 -0.87569,0.87567 13.08965,32.48211 25.24134,57.12635 18.4072,37.33076 40.36018,75.38681 63.25527,109.65449 6.074,9.09121 11.0437,16.82559 11.0437,17.1875 0,1.97152 -66.2984,-0.57204 -99.375,-3.81255 -17.3462,-1.69941 -37.73848,-4.66858 -51.5625,-7.50763 L 873.75,953.4375 v 72.6563 72.6562 H 812.5 751.25 Z"
       id="path5739" />
    <path
       style="fill:#ffa500;fill-opacity:1"
       d="M 791.25,1396.4879 C 751.38068,1373.9984 725.30009,1357.2134 695,1334.543 551.08,1226.8628 431.49355,1063.8326 345.99482,858.75 315.00569,784.41751 287.28149,700.54892 267.48512,621.25 254.73451,570.17445 248.90905,540.58008 240.86215,486.00066 l -4.18335,-28.37435 6.3481,-0.67347 c 3.49145,-0.3704 20.69185,-1.54824 38.2231,-2.6174 47.89812,-2.92111 74.85335,-6.99638 116.03363,-17.54273 C 514.0346,406.89255 666.38171,329.76825 789.0625,238.45832 l 23.4375,-17.44427 23.4375,17.44427 c 122.68079,91.30993 275.0279,168.43423 391.7789,198.33439 42.2289,10.81491 67.9312,14.60413 122.6791,18.08623 20.4989,1.30377 37.4229,2.5675 37.609,2.80827 0.4419,0.57166 -9.5771,67.11964 -12.2984,81.68779 -18.451,98.77709 -54.846,218.97918 -96.701,319.375 -92.0191,220.723 -223.7622,392.9273 -381.88861,499.1751 -26.30737,17.6764 -81.0141,49.6273 -84.81192,49.5334 -0.92376,-0.023 -10.39832,-4.9596 -21.05457,-10.9706 z m 39.51101,-130.5816 c 79.12929,-52.8338 147.44528,-120.4644 210.45989,-208.3485 89.0662,-124.21736 162.5313,-290.13903 206.8406,-467.15173 6.6066,-26.39321 7.6654,-31.65607 6.368,-31.65607 -0.3137,0 -8.8918,-1.71381 -19.0625,-3.80848 C 1116.2762,530.41449 972.01075,466.20045 837.8125,377.98584 L 812.5,361.34678 787.1875,377.98584 c -134.29246,88.27654 -278.44105,152.4219 -397.74871,176.99607 -10.27743,2.11686 -18.97624,4.13886 -19.3307,4.49333 -0.91407,0.91407 11.29847,49.73468 20.76873,83.02476 9.52804,33.49314 29.13597,92.77602 41.39449,125.15269 79.46644,209.88312 192.64695,373.14651 329.60369,475.45471 15.63256,11.6776 49.06832,34.3926 50.625,34.3926 0.49336,0 8.71081,-5.2171 18.26101,-11.5937 z M 752.0952,1097.9285 c -0.46486,-0.4648 -0.8452,-33.1655 -0.8452,-72.6681 v -71.8229 l -4.0625,0.82456 c -12.47055,2.53112 -36.4661,5.93492 -53.4375,7.58017 -22.08163,2.14065 -95.8517,5.22273 -97.02094,4.05351 -0.4252,-0.42521 2.27914,-5.16008 6.00966,-10.52193 29.28948,-42.09755 65.64998,-107.77139 85.97105,-155.27977 7.54567,-17.6409 8.60222,-20.89793 6.32197,-19.48865 -4.11384,2.54248 -49.88991,8.14461 -66.5513,8.14461 h -7.36803 l 5.20439,-7.1875 c 8.02531,-11.08334 30.70465,-45.12729 43.92611,-65.9375 C 696.94796,673.59199 766.72316,558.69941 801.76307,499.0625 807.11532,489.95312 811.94694,482.5 812.5,482.5 c 0.55306,0 5.38515,7.45312 10.73797,16.5625 69.83618,118.84627 147.54742,243.96229 175.59105,282.70364 l 5.35018,7.39114 -15.52709,-0.83485 c -18.67245,-1.00395 -45.18441,-4.13849 -53.71133,-6.35034 -3.40493,-0.88323 -6.19078,-1.13345 -6.19078,-0.55605 0,2.60012 16.1576,38.41988 28.05046,62.18501 19.50583,38.97789 44.46704,81.59863 65.46084,111.77276 3.7305,5.36185 6.4348,10.09672 6.0096,10.52193 -1.1692,1.16922 -74.93927,-1.91286 -97.0209,-4.05351 -16.96604,-1.64474 -40.96756,-5.04912 -53.42728,-7.57813 l -4.05228,-0.82251 -0.32272,72.34171 -0.32272,72.3417 -60.0923,0.3244 c -33.05076,0.1784 -60.47264,-0.056 -60.9375,-0.5209 z"
       id="path5737" />
    <path
       style="fill:#ffa500;fill-opacity:1"
       d="m 800.625,1401.6127 c -34.67652,-19.6243 -47.30122,-27.1816 -66.25,-39.6578 C 580.71911,1260.7843 452.23681,1098.9717 359.63374,890 312.7947,784.30119 273.9548,662.47879 252.62846,554.375 c -6.4028,-32.45598 -16.11841,-95.05171 -14.9366,-96.23354 0.37229,-0.37228 18.05955,-1.80931 39.30501,-3.19338 62.25482,-4.05573 97.89821,-10.38247 152.24865,-27.02433 109.60805,-33.56149 250.20043,-107.53128 360.46471,-189.65109 l 22.78977,-16.9728 22.78977,16.9728 c 110.26428,82.11981 250.85663,156.0896 360.46473,189.65109 54.3504,16.64186 89.9938,22.9686 152.2486,27.02433 21.2455,1.38407 38.9328,2.8211 39.305,3.19338 0.3723,0.3723 -1.449,15.14589 -4.0474,32.83021 -22.1293,150.61149 -75.5183,317.59294 -147.5645,461.52833 -94.5056,188.8056 -218.0368,331.5707 -365.92889,422.9044 -17.46005,10.7827 -55.98046,32.1227 -57.7295,31.9816 -0.77705,-0.062 -5.91281,-2.6606 -11.41281,-5.7733 z m 28.21281,-134.2709 c 75.67981,-49.4952 147.89613,-120.312 209.52739,-205.4668 81.9087,-113.17195 149.6309,-258.41069 196.7124,-421.875 4.9781,-17.28345 21.1675,-80.3891 20.739,-80.83957 -0.1125,-0.11801 -7.5138,-1.70227 -16.4478,-3.52055 C 1181.539,543.87018 1114.1656,521.82132 1049.375,493.46184 979.30064,462.78959 894.24151,415.9206 827.1875,371.03285 l -14.6875,-9.83221 -14.6875,9.83221 c -67.05401,44.88775 -152.11314,91.75674 -222.1875,122.42899 -64.7906,28.35948 -132.16396,50.40834 -189.99376,62.17804 -8.93408,1.81828 -16.33561,3.40253 -16.44787,3.52055 -0.42848,0.45047 15.76098,63.55612 20.73902,80.83957 37.25897,129.36086 86.40822,245.22333 146.49802,345.34849 65.71722,109.50191 141.38966,195.48891 229.83199,261.15941 14.27888,10.6024 44.70519,30.9921 46.2476,30.9921 0.44299,0 7.795,-4.5712 16.33781,-10.1582 z M 751.25,1025.625 c 0,-39.53125 -0.46232,-71.875 -1.02739,-71.875 -0.56507,0 -9.1432,1.36133 -19.0625,3.02517 -9.91931,1.66386 -27.70396,3.92315 -39.52144,5.02068 -21.09952,1.95959 -93.92646,5.08302 -94.93773,4.07175 -0.28352,-0.2835 3.0863,-5.79781 7.48846,-12.25403 31.21267,-45.77655 66.03419,-108.99708 85.64219,-155.48857 4.05938,-9.625 7.30481,-17.57145 7.21206,-17.65879 -0.0927,-0.0874 -5.11668,0.85459 -11.16425,2.09314 -11.3223,2.31881 -48.11559,6.19065 -58.82859,6.19065 h -6.04033 l 4.53362,-5.9375 c 20.45366,-26.7873 76.97404,-117.08386 152.5809,-243.76214 18.5625,-31.10122 34.03125,-56.54767 34.375,-56.54767 0.34375,0 15.8125,25.44645 34.375,56.54767 75.60686,126.67828 132.12724,216.97484 152.5809,243.76214 l 4.5336,5.9375 h -6.04031 c -10.713,0 -47.50629,-3.87184 -58.82859,-6.19065 -6.04758,-1.23855 -11.07149,-2.18046 -11.16425,-2.09314 -0.0928,0.0874 3.16106,8.03379 7.23071,17.65879 19.88288,47.02432 54.37194,109.65495 85.62354,155.48857 4.4022,6.45622 7.772,11.97053 7.4885,12.25403 -1.0113,1.01127 -73.83825,-2.11216 -94.93778,-4.07175 -11.81747,-1.09753 -29.60212,-3.35683 -39.52143,-5.02068 -9.9193,-1.66384 -18.49743,-3.02517 -19.0625,-3.02517 -0.56507,0 -1.02739,32.34375 -1.02739,71.875 V 1097.5 H 812.5 751.25 Z"
       id="path5735" />
    <path
       style="fill:#ffa500;fill-opacity:1"
       d="M 788.56632,1394.5057 C 697.52834,1343.6879 621.64397,1280.9888 549.37489,1196.875 433.59921,1062.124 340.78437,880.61726 281.81896,673.64826 271.5017,637.4346 258.97039,586.21783 252.63612,554.375 c -5.07821,-25.52855 -15.92461,-95.25318 -14.96666,-96.21113 0.29136,-0.29136 18.19008,-1.68662 39.77493,-3.1006 C 345.17106,450.62669 384.99246,442.9567 446.25,422.54967 553.4215,386.84712 684.6286,316.66183 787.1875,240.17541 l 25.3125,-18.87757 25.3125,18.87757 c 101.78522,75.90943 233.1788,146.34399 339.0625,181.75709 62.4529,20.88755 102.5261,28.66616 170.6806,33.13077 21.5849,1.41398 39.4835,2.80924 39.7749,3.1006 0.958,0.95795 -9.8884,70.68258 -14.9666,96.21113 -9.7888,49.20854 -27.9787,118.71541 -44.6527,170.625 -95.3665,296.8962 -253.0761,522.3251 -452.5426,646.8615 -14.55018,9.0842 -61.24439,35.6385 -62.6686,35.6385 -0.36034,0 -11.1305,-5.8474 -23.93368,-12.9943 z m 45.66746,-130.7358 c 77.12339,-51.5064 150.89065,-125.6008 212.47802,-213.4206 87.6188,-124.93908 158.0869,-285.82198 202.0871,-461.37731 4.0606,-16.20128 7.1833,-29.65645 6.9393,-29.90042 -0.244,-0.24396 -7.4004,-1.84551 -15.9034,-3.55898 C 1116.2297,530.60399 973.16866,466.80814 830.3125,372.89242 L 812.5,361.18223 794.6875,372.89242 c -142.89272,93.93975 -285.88555,157.70519 -409.52234,182.62017 -8.50291,1.71347 -15.65128,3.30687 -15.88527,3.54086 -0.234,0.23399 2.90122,13.73276 6.96716,29.99725 47.56519,190.2695 127.35225,364.94247 225.39758,493.4493 43.29618,56.7478 98.23954,112.8076 150.1838,153.2355 17.93472,13.9586 58.32866,41.7645 60.67157,41.7645 0.64616,0 10.42636,-6.1786 21.73378,-13.7301 z M 751.25,1025.2379 v -72.26209 l -15.3125,2.8128 C 705.92669,961.30139 659.75976,965 620.95884,965 608.05647,965 597.5,964.74624 597.5,964.43607 c 0,-0.31016 6.39053,-10.29453 14.20116,-22.1875 24.16025,-36.78787 42.77092,-69.31117 60.79709,-106.24671 10.83735,-22.20567 25.2317,-54.93857 24.48688,-55.68341 -0.20224,-0.20223 -4.04509,0.48516 -8.53968,1.52752 -9.77446,2.26685 -33.68457,5.11697 -53.26725,6.34952 l -14.19681,0.89355 6.80307,-9.23202 C 650.65445,748.82159 703.07081,665.1599 771.40468,550.625 c 16.81723,-28.1875 32.77908,-55.04688 35.47078,-59.6875 2.69169,-4.64063 5.23603,-8.4375 5.65409,-8.4375 0.41805,0 2.09808,2.39062 3.73339,5.3125 6.24992,11.16696 68.97134,115.8038 91.59889,152.8125 41.6964,68.19695 73.32217,117.47661 89.35371,139.23202 l 6.80306,9.23202 -14.1968,-0.89355 c -19.58267,-1.23255 -43.49279,-4.08267 -53.26725,-6.34952 -4.49459,-1.04236 -8.33744,-1.72975 -8.53967,-1.52752 -0.74483,0.74484 13.64952,33.47774 24.48687,55.68341 18.02618,36.93554 36.63684,69.45884 60.79705,106.24671 7.8107,11.89297 14.2012,21.87734 14.2012,22.1875 0,0.31017 -10.5565,0.56393 -23.4588,0.56393 -38.80096,0 -84.96789,-3.69861 -114.9787,-9.21139 L 873.75,952.97581 V 1025.2379 1097.5 H 812.5 751.25 Z"
       id="path5733" />
  </g>
  <path
     style="fill:#000000;stroke-width:0.375622"
     d="M 244.4903,473.58294 C 216.14914,457.67451 194.68594,441.19487 171.22976,417.33276 127.44121,372.78626 92.935213,315.14222 66.855068,242.96938 56.717027,214.91385 47.031684,179.99102 42.121021,153.78483 c -1.409396,-7.5214 -5.113692,-32.14113 -4.87321,-32.38871 0.109161,-0.1124 6.269056,-0.58137 13.688664,-1.04221 20.805856,-1.29213 29.694729,-2.59957 46.357078,-6.818 C 141.24728,102.40802 198.08778,73.591037 245.54673,38.374632 l 7.86459,-5.835801 7.86457,5.835801 c 9.98838,7.411779 16.78699,12.141102 25.94138,18.045671 42.93216,27.691047 86.56159,48.064637 122.3118,57.115607 16.66235,4.21843 25.55122,5.52587 46.35705,6.818 7.41962,0.46084 13.57956,0.92981 13.68871,1.04221 0.24044,0.24758 -3.46383,24.86731 -4.87324,32.38871 -10.34019,55.18146 -33.81316,120.96794 -60.55435,169.71234 -20.23944,36.89291 -42.40784,67.23647 -68.55437,93.83559 -23.63764,24.0467 -45.78481,40.99188 -74.24365,56.80524 -4.02694,2.23755 -7.61883,4.06582 -7.98195,4.06272 -0.36314,0 -4.35777,-2.08109 -8.87697,-4.61778 z m 15.20778,-48.26078 c 54.47995,-35.87381 99.01911,-95.09543 131.58555,-174.96335 10.13336,-24.8517 19.60343,-54.18375 26.25994,-81.33611 1.13955,-4.64825 2.0738,-8.6867 2.07614,-8.97406 0,-0.28748 -1.84457,-0.88232 -4.10417,-1.32187 -23.02748,-4.4796 -51.4164,-13.85783 -76.9151,-25.40858 -26.27398,-11.90207 -57.61756,-29.38905 -81.29432,-45.355341 -1.86058,-1.254601 -3.6118,-2.281189 -3.89162,-2.281189 -0.2798,0 -2.3494,1.233318 -4.59909,2.740742 -30.68238,20.558288 -67.19557,40.007008 -98.43522,52.431308 -20.2108,8.03806 -41.27072,14.40988 -59.073107,17.87306 -2.34138,0.45549 -4.10836,1.03322 -4.10836,1.34326 0,1.07696 5.18262,21.34927 7.69033,30.08143 23.357677,81.33449 60.009277,149.4028 105.892507,196.66063 9.25359,9.53084 21.87982,20.70674 32.48425,28.75293 4.36694,3.31334 19.63165,13.80339 20.09365,13.80852 0.10064,0 2.95299,-1.82206 6.33862,-4.05138 z m -29.2936,-90.38022 v -27.29128 l -1.52596,0.31336 c -5.21363,1.07075 -12.85535,2.1813 -19.36799,2.81464 -11.96542,1.1638 -37.3274,2.1644 -37.3274,1.47277 0,-0.11646 2.40042,-3.86679 5.33426,-8.33409 8.6357,-13.1493 15.12919,-24.40765 22.01643,-38.17201 4.27929,-8.55226 10.37811,-22.29244 10.04346,-22.62708 -0.11181,-0.11176 -1.76905,0.1201 -3.68277,0.51538 -3.2631,0.67409 -14.78189,1.90334 -21.40347,2.28418 -3.48832,0.20064 -3.4923,0.33678 0.13333,-4.5658 8.7754,-11.86614 47.09105,-73.79705 66.45941,-107.42069 1.15102,-1.99821 2.19842,-3.62616 2.32754,-3.61782 0.12911,0.0107 4.75628,7.66503 10.2826,17.0147 25.01665,42.32413 50.19124,82.78289 58.50434,94.02381 3.62562,4.90258 3.62165,4.76644 0.13332,4.5658 -6.62157,-0.38084 -18.14035,-1.61009 -21.40347,-2.28418 -1.91371,-0.39528 -3.57095,-0.62714 -3.68276,-0.51538 -0.33466,0.33464 5.76417,14.07482 10.04345,22.62708 6.88724,13.76436 13.38074,25.02271 22.01643,38.17201 2.93386,4.4673 5.33427,8.21763 5.33427,8.33409 0,0.69163 -25.36199,-0.30897 -37.3274,-1.47277 -6.51264,-0.63334 -14.15437,-1.74389 -19.36799,-2.81464 l -1.52597,-0.31336 v 27.29128 27.29117 h -23.00682 -23.00684 z"
     id="path5749" />
</svg>
