<?xml version="1.0" standalone="no"?>
<!DOCTYPE svg PUBLIC "-//W3C//DTD SVG 20010904//EN"
 "http://www.w3.org/TR/2001/REC-SVG-20010904/DTD/svg10.dtd">
<svg version="1.0" xmlns="http://www.w3.org/2000/svg"
 width="1400.000000pt" height="1400.000000pt" viewBox="0 0 1400.000000 1400.000000"
 preserveAspectRatio="xMidYMid meet">
<metadata>
Created by potrace 1.14, written by Peter Selinger 2001-2017
</metadata>
<g transform="translate(0.000000,1400.000000) scale(0.100000,-0.100000)"
fill="#000000" stroke="none">
<path d="M6895 12294 c-58 -39 -59 -40 -41 -65 22 -33 20 -42 -7 -25 -22 15
-67 12 -67 -4 0 -4 -12 -11 -26 -14 -26 -7 -27 -14 -9 -59 7 -17 6 -18 -13 -6
-36 23 -59 -24 -37 -76 8 -20 8 -20 -13 -1 -12 10 -24 27 -27 37 -10 29 -22
22 -32 -17 -8 -35 -10 -36 -55 -39 -33 -1 -58 -10 -82 -29 -19 -14 -38 -26
-42 -26 -4 0 -16 -7 -26 -17 -10 -9 -26 -21 -36 -27 -63 -38 -92 -59 -92 -67
0 -5 -6 -9 -14 -9 -8 0 -51 -27 -94 -60 -44 -33 -83 -60 -87 -60 -14 0 -140
-63 -158 -79 -11 -9 -35 -33 -56 -53 -20 -21 -45 -38 -56 -38 -21 0 -132 -63
-150 -85 -5 -7 -21 -15 -35 -19 -14 -3 -45 -25 -70 -48 -25 -23 -49 -41 -53
-40 -4 1 -21 -5 -37 -13 -16 -8 -38 -15 -48 -15 -20 0 -105 -42 -132 -64 -8
-7 -31 -18 -50 -25 -19 -6 -47 -25 -62 -41 -15 -17 -33 -30 -40 -30 -7 0 -46
-16 -85 -35 -40 -19 -76 -35 -81 -35 -5 0 -17 -9 -27 -20 -10 -11 -22 -20 -27
-20 -9 0 -113 -50 -231 -112 -29 -15 -58 -27 -65 -27 -20 -1 -119 -48 -127
-60 -3 -6 -14 -11 -24 -11 -10 0 -29 -8 -42 -18 -13 -11 -44 -22 -69 -26 -24
-4 -67 -22 -95 -41 -29 -18 -65 -37 -81 -40 -16 -4 -49 -16 -74 -27 -85 -39
-105 -46 -143 -52 -21 -2 -61 -16 -90 -29 -29 -14 -70 -30 -92 -37 -22 -8 -62
-24 -89 -37 -28 -13 -62 -23 -77 -23 -14 0 -44 -12 -65 -26 -54 -37 -97 -54
-138 -54 -19 0 -38 -4 -41 -10 -3 -5 -19 -10 -34 -10 -15 0 -36 -7 -47 -15
-10 -8 -31 -15 -46 -15 -15 0 -51 -9 -79 -20 -29 -10 -73 -22 -98 -26 -25 -3
-61 -15 -79 -26 -24 -15 -54 -21 -105 -22 -44 -2 -84 -9 -104 -19 -18 -9 -41
-17 -52 -17 -11 0 -22 -4 -25 -8 -2 -4 -44 -6 -93 -3 -170 8 -278 2 -308 -18
-5 -4 -55 -6 -109 -5 -57 2 -109 -2 -120 -8 -11 -6 -36 -10 -55 -10 -19 1 -41
-4 -48 -10 -9 -7 -63 -12 -146 -12 l-132 -1 3 -99 c2 -54 8 -108 13 -118 6
-11 8 -26 5 -34 -5 -14 1 -53 36 -237 6 -32 15 -60 19 -63 5 -3 9 -16 9 -30 0
-14 11 -59 25 -100 14 -41 25 -85 25 -98 0 -13 7 -40 15 -59 8 -20 15 -57 15
-82 0 -26 4 -54 9 -64 6 -9 11 -42 12 -72 2 -61 17 -154 29 -184 5 -11 14 -51
20 -90 7 -38 18 -79 24 -90 7 -11 18 -56 25 -100 7 -44 21 -91 31 -105 9 -14
20 -54 24 -90 4 -36 16 -80 27 -97 12 -20 18 -41 14 -52 -3 -11 2 -36 13 -58
12 -23 18 -50 15 -69 -3 -20 1 -35 11 -43 10 -9 16 -29 16 -56 0 -24 6 -48 14
-54 8 -6 16 -26 19 -44 2 -18 18 -63 35 -102 17 -38 39 -97 48 -130 45 -162
56 -202 66 -230 6 -16 28 -84 50 -150 22 -66 43 -127 45 -135 3 -8 7 -27 9
-42 2 -15 11 -46 20 -70 8 -24 22 -68 31 -98 8 -30 23 -70 33 -90 9 -19 23
-60 31 -90 7 -30 23 -76 36 -102 13 -26 43 -109 68 -185 25 -76 50 -146 55
-155 6 -10 10 -23 10 -28 0 -6 9 -30 20 -52 11 -23 20 -48 20 -55 0 -7 11 -23
25 -35 13 -11 31 -45 40 -74 8 -28 21 -54 29 -57 7 -3 17 -23 21 -44 3 -21 15
-47 25 -58 10 -11 21 -32 23 -46 6 -32 54 -124 73 -140 8 -6 14 -19 14 -29 0
-9 12 -34 26 -56 14 -21 49 -85 77 -143 64 -133 127 -244 144 -254 7 -4 13
-13 13 -19 0 -7 8 -21 18 -32 10 -12 27 -41 37 -66 10 -25 25 -52 32 -61 7 -8
13 -29 13 -46 0 -17 7 -36 15 -43 8 -7 15 -18 15 -25 0 -7 16 -37 35 -66 19
-30 35 -59 35 -65 0 -6 7 -17 16 -24 8 -8 22 -27 29 -44 15 -32 27 -52 57 -98
10 -15 18 -36 18 -46 0 -11 8 -30 19 -43 10 -13 21 -34 25 -46 4 -13 12 -23
17 -23 5 0 9 -8 9 -19 0 -10 14 -36 31 -57 17 -22 51 -68 75 -104 73 -108 77
-114 106 -148 15 -18 39 -55 53 -82 13 -27 38 -57 55 -66 16 -10 30 -22 30
-26 0 -28 167 -256 249 -339 36 -37 66 -75 145 -184 24 -33 65 -82 91 -110 26
-27 54 -60 63 -73 8 -12 25 -25 38 -28 13 -3 24 -12 24 -19 0 -7 18 -32 40
-56 44 -48 74 -83 123 -144 49 -59 199 -206 328 -322 201 -179 222 -197 339
-287 63 -49 133 -104 154 -123 22 -18 44 -33 50 -33 6 -1 20 -15 31 -33 11
-18 38 -41 61 -53 22 -11 74 -54 116 -95 79 -77 93 -87 218 -152 41 -21 80
-44 85 -50 15 -18 124 -91 174 -116 24 -12 81 -47 127 -77 46 -30 87 -54 90
-54 3 0 35 -20 71 -45 35 -25 67 -45 72 -45 4 0 54 -18 111 -41 57 -22 106
-36 109 -31 3 5 13 9 22 9 9 0 53 12 98 28 80 28 82 30 111 84 28 52 32 91 9
91 -6 0 -7 5 -4 10 4 6 12 10 18 9 31 -4 40 1 27 15 -6 8 -19 12 -28 9 -13 -5
-12 -2 4 20 10 14 23 27 28 27 5 0 3 -6 -3 -13 -6 -8 -8 -17 -4 -20 11 -12 23
-8 23 7 0 8 7 17 16 20 9 4 13 2 8 -5 -4 -7 1 -9 12 -7 11 2 18 10 16 17 -4
19 31 -3 61 -38 34 -41 63 -36 59 12 -1 19 2 38 8 42 6 4 10 -6 10 -26 0 -28
2 -30 17 -18 13 11 17 11 20 1 3 -8 13 -6 35 10 41 31 77 54 115 73 17 9 39
25 49 36 9 10 22 19 29 19 6 0 24 14 40 30 16 17 34 30 40 30 6 0 31 18 56 40
24 22 80 64 124 93 44 28 89 60 100 70 41 36 165 133 220 172 32 22 78 57 102
78 25 20 58 44 74 52 16 9 29 20 29 25 0 6 5 10 12 10 7 0 38 26 70 57 41 40
58 65 58 83 0 37 48 104 64 90 17 -13 25 34 27 150 l0 85 15 -47 c8 -26 19
-50 24 -53 6 -3 10 -14 10 -24 0 -10 9 -26 20 -36 20 -18 21 -18 27 3 3 12 10
22 17 22 6 0 17 14 25 31 7 17 21 33 30 37 9 3 33 24 54 46 26 28 37 35 37 23
0 -24 17 -21 26 5 4 12 17 31 30 41 13 10 24 25 24 34 0 8 16 29 36 46 20 18
47 51 61 75 16 27 35 44 51 49 36 8 72 32 72 47 0 7 18 28 40 46 22 18 40 39
40 46 0 6 7 15 16 18 8 3 12 10 9 16 -3 5 -2 10 4 10 5 0 13 10 17 23 4 12 22
38 40 57 19 19 34 40 34 47 0 7 5 13 10 13 6 0 9 4 8 8 -2 5 21 35 50 66 28
31 52 64 52 72 0 7 6 14 13 14 8 0 7 4 -3 10 -10 6 -11 10 -2 10 6 0 12 11 12
24 0 35 10 56 26 56 8 0 14 7 14 16 0 9 5 12 12 8 6 -4 8 -3 5 4 -10 15 3 42
20 42 7 0 22 13 31 30 9 16 20 30 25 30 4 0 7 7 7 16 0 9 5 12 12 8 8 -5 9 -2
5 9 -3 10 -2 17 3 17 17 0 60 51 60 71 0 12 8 23 20 26 11 3 20 12 20 19 0 8
4 14 10 14 16 0 49 42 43 56 -3 8 1 14 8 14 14 0 79 72 79 86 0 4 18 26 40 50
22 24 40 50 40 58 0 9 9 26 21 38 50 56 99 120 99 130 0 6 14 26 30 45 17 18
30 39 30 46 0 7 16 32 35 56 19 24 35 50 35 57 0 7 18 32 40 55 22 24 38 49
36 56 -3 7 -1 13 5 13 6 0 7 5 4 10 -3 6 -2 10 2 10 5 0 9 12 10 27 1 56 3 63
18 63 8 0 14 3 14 8 -4 23 3 42 15 42 8 0 17 13 21 29 3 16 13 32 21 35 9 3
13 10 10 15 -3 4 4 17 15 27 11 10 17 24 14 31 -2 8 0 11 5 8 5 -3 13 7 16 22
7 27 34 72 62 101 7 8 10 22 7 32 -3 10 0 22 7 27 18 11 40 52 33 63 -3 5 4
14 15 20 11 6 18 15 15 20 -3 6 0 7 8 4 9 -3 17 8 26 36 6 22 16 40 20 40 5 0
12 12 16 28 3 15 15 36 25 47 10 11 21 30 25 43 3 12 11 22 16 22 5 0 9 6 9
13 0 6 9 23 20 37 11 14 20 33 20 43 0 9 6 17 14 17 7 0 16 14 20 30 3 17 17
43 31 58 14 15 23 33 20 40 -2 6 -1 12 4 12 5 0 14 15 22 33 7 17 23 48 36 67
13 19 23 42 23 51 0 9 7 22 15 29 8 7 15 26 15 43 0 16 10 44 23 61 13 17 33
51 44 76 12 25 39 83 61 130 40 86 60 156 42 145 -6 -3 -10 -2 -10 4 0 5 5 13
10 16 6 4 8 10 5 15 -3 5 -1 11 5 15 15 9 12 25 -4 25 -8 0 -19 -14 -25 -30
-9 -28 -41 -70 -41 -55 0 3 9 23 20 44 14 28 19 56 17 102 -2 56 0 64 16 63 9
-1 17 3 16 10 -4 30 2 57 11 51 11 -7 31 35 23 47 -2 4 5 18 16 30 22 23 27
38 12 38 -4 0 1 30 11 68 11 37 22 78 25 92 3 14 9 30 13 35 4 6 22 57 39 114
36 114 52 135 21 25 -24 -84 -25 -89 -2 -91 11 -1 23 10 31 28 7 16 17 29 22
29 6 0 6 -8 -1 -19 -13 -25 -13 -34 1 -29 6 2 10 7 9 12 -1 5 3 12 8 15 5 3
26 56 47 116 21 61 41 114 46 120 5 5 9 25 9 45 0 19 7 45 15 58 15 20 19 35
32 121 3 19 14 49 24 65 11 17 19 45 19 62 0 16 4 34 9 40 9 9 19 65 25 137 1
21 8 43 14 49 7 7 12 27 12 44 0 18 4 35 9 38 5 3 12 27 16 53 4 27 15 66 24
88 10 23 21 59 25 80 6 37 15 65 36 120 20 53 30 94 30 122 0 16 7 43 15 60
24 48 41 164 45 300 0 7 5 12 11 10 7 -1 13 15 14 41 2 30 0 40 -8 35 -7 -3
-3 4 8 16 11 13 21 39 22 60 2 20 5 50 7 66 3 17 8 57 11 90 3 33 10 74 15 90
5 17 12 59 16 95 3 35 10 71 15 80 10 18 29 181 23 192 -3 5 -1 32 5 61 6 28
13 79 17 112 3 33 9 88 13 122 4 34 3 59 -1 57 -4 -3 -8 2 -8 10 0 10 -9 16
-22 17 -13 1 -43 3 -68 5 -79 6 -140 5 -162 -2 -12 -3 -18 -2 -15 3 4 6 -23
10 -66 10 -108 0 -315 12 -377 23 -30 5 -77 12 -105 16 -27 4 -59 13 -71 20
-11 8 -38 13 -60 13 -21 -1 -66 4 -99 10 -33 6 -96 17 -140 24 -44 7 -90 19
-102 25 -12 7 -32 12 -45 12 -13 0 -28 4 -33 9 -6 5 -23 12 -40 15 -16 3 -48
10 -70 17 -22 6 -51 12 -65 14 -14 1 -32 5 -40 8 -8 3 -51 11 -95 17 -44 7
-97 21 -118 31 -21 11 -53 19 -72 19 -18 0 -36 4 -39 9 -9 14 -85 51 -105 51
-10 0 -24 7 -32 16 -25 30 -62 43 -107 34 -23 -4 -48 -12 -56 -19 -11 -9 -26
1 -77 50 -53 51 -67 60 -90 55 -18 -3 -45 5 -83 25 -32 16 -65 29 -75 29 -10
0 -24 7 -31 15 -7 8 -18 15 -25 15 -6 0 -20 9 -30 20 -10 11 -25 20 -33 20 -8
0 -29 8 -46 19 -17 10 -42 22 -56 26 -14 4 -37 16 -52 26 -14 11 -35 19 -46
19 -12 0 -24 5 -27 10 -4 6 -28 21 -53 34 -26 13 -60 30 -77 39 -16 8 -59 28
-95 45 -102 47 -132 62 -175 87 -22 13 -48 24 -57 24 -10 1 -33 15 -53 32 -19
17 -70 50 -113 72 -42 22 -93 50 -112 62 -19 12 -50 27 -68 33 -19 6 -46 22
-62 34 -77 62 -136 97 -265 161 -27 14 -66 36 -85 49 -19 13 -51 32 -70 41
-19 10 -42 21 -50 26 -8 5 -35 17 -60 26 -99 38 -169 79 -255 150 -51 43 -97
76 -217 157 -38 26 -75 53 -81 61 -7 8 -45 36 -86 62 -40 26 -85 59 -100 73
-14 13 -45 38 -67 54 -23 16 -51 43 -63 59 -12 16 -25 29 -29 29 -4 0 -25 -12
-47 -26z m82 -1366 c28 -24 62 -56 74 -72 12 -16 37 -35 56 -42 18 -8 55 -31
81 -51 26 -19 58 -41 72 -47 14 -6 48 -25 77 -43 29 -18 59 -33 67 -33 8 0 18
-5 22 -11 3 -6 21 -18 38 -26 17 -7 67 -34 111 -58 44 -25 101 -56 127 -70 26
-13 49 -28 52 -33 3 -5 36 -22 73 -37 37 -16 70 -33 71 -37 2 -5 18 -15 35
-24 18 -8 50 -26 72 -39 22 -14 47 -28 55 -32 8 -3 33 -18 55 -32 79 -50 130
-74 157 -73 16 0 27 -4 25 -11 -1 -7 6 -11 16 -9 9 2 17 -3 17 -9 0 -7 3 -10
6 -6 6 6 17 -1 55 -35 10 -10 24 -18 29 -18 6 0 27 -10 48 -23 20 -13 66 -38
102 -55 36 -18 72 -36 80 -41 47 -25 65 -33 89 -37 14 -3 42 -14 61 -26 19
-11 76 -36 125 -55 50 -19 126 -52 170 -73 109 -53 139 -65 220 -90 39 -12 82
-28 97 -36 14 -8 33 -14 43 -14 9 0 35 -9 57 -20 23 -11 47 -20 52 -20 6 -1
29 -9 51 -20 22 -11 44 -19 49 -20 5 0 46 -17 90 -39 158 -75 191 -89 219 -89
15 0 36 -7 47 -17 18 -16 97 -41 165 -51 28 -4 117 -35 152 -53 33 -16 89 -31
120 -31 16 0 68 -14 114 -31 47 -17 104 -30 129 -30 39 0 150 -40 150 -54 0
-9 -29 -116 -34 -123 -5 -8 -41 -210 -51 -282 -8 -59 -12 -83 -16 -95 -2 -5 2
-19 8 -31 12 -20 7 -68 -6 -60 -3 3 -7 -26 -8 -62 -2 -78 -6 -105 -15 -112 -3
-3 -8 -25 -9 -50 -2 -25 -14 -74 -27 -110 -13 -36 -31 -86 -40 -112 -9 -27
-19 -48 -24 -48 -13 0 -9 37 8 80 13 32 14 44 5 53 -14 14 -28 -2 -37 -43 -3
-14 -16 -46 -30 -72 -13 -27 -24 -56 -24 -67 0 -10 -6 -21 -14 -24 -7 -3 -16
-24 -20 -47 -3 -23 -14 -52 -22 -65 -9 -14 -14 -30 -12 -37 3 -7 -6 -34 -19
-59 -13 -26 -23 -58 -23 -70 0 -13 -14 -57 -30 -98 -17 -41 -28 -81 -26 -88 6
-14 -38 -108 -55 -118 -5 -4 -9 -24 -7 -46 1 -29 -4 -45 -22 -64 -23 -24 -69
-150 -74 -203 -2 -12 -8 -28 -14 -34 -7 -7 -12 -19 -12 -27 0 -9 -7 -29 -15
-45 -9 -16 -14 -35 -11 -42 3 -7 2 -15 -2 -18 -3 -4 -8 -19 -10 -34 -2 -15 -8
-30 -14 -33 -7 -4 -6 -9 2 -14 10 -6 10 -10 -2 -19 -8 -6 -27 -37 -42 -68 -15
-31 -34 -62 -42 -69 -8 -6 -14 -22 -14 -36 0 -14 -4 -21 -10 -18 -15 9 -37
-17 -46 -56 -4 -19 -7 -37 -6 -41 3 -13 -16 -9 -21 5 -3 6 -6 2 -6 -10 -1 -12
-5 -24 -10 -27 -5 -3 -14 -27 -21 -53 -6 -27 -21 -63 -32 -81 -11 -18 -17 -39
-14 -47 3 -9 -3 -24 -14 -35 -25 -25 -50 -74 -50 -98 0 -11 -7 -26 -16 -33 -9
-7 -29 -43 -46 -79 -31 -69 -32 -70 -78 -140 -16 -25 -30 -51 -30 -59 0 -7
-12 -30 -27 -50 -33 -42 -50 -68 -62 -96 -6 -11 -19 -33 -30 -50 -12 -16 -21
-37 -21 -45 0 -8 -20 -37 -45 -63 -25 -27 -45 -53 -45 -57 0 -5 -13 -28 -29
-52 -15 -24 -31 -56 -35 -73 -4 -16 -24 -55 -44 -85 -19 -29 -41 -68 -46 -85
-6 -16 -19 -41 -29 -55 -69 -99 -130 -190 -145 -220 -30 -56 -85 -143 -105
-165 -46 -53 -86 -105 -122 -160 -22 -33 -59 -84 -82 -113 -24 -30 -43 -62
-43 -72 0 -10 -12 -23 -30 -30 -16 -7 -37 -24 -46 -39 -18 -27 -67 -83 -96
-110 -10 -8 -18 -24 -18 -33 0 -10 -11 -23 -25 -28 -13 -5 -30 -19 -37 -30 -7
-12 -34 -34 -59 -50 -33 -20 -50 -39 -58 -63 -7 -20 -29 -48 -54 -67 -48 -37
-86 -73 -170 -157 -32 -32 -79 -79 -105 -105 -26 -26 -47 -52 -47 -58 0 -12
-84 -90 -97 -90 -5 0 -8 -8 -6 -17 2 -10 -3 -18 -13 -18 -21 0 -79 -56 -79
-76 0 -9 -10 -29 -21 -44 -15 -18 -18 -29 -11 -34 8 -5 6 -12 -7 -23 -11 -9
-23 -13 -27 -10 -4 4 -4 2 0 -5 3 -6 -3 -18 -15 -27 -12 -8 -18 -19 -15 -25 4
-6 -9 -4 -29 5 -32 13 -36 13 -42 -1 -3 -9 -12 -14 -19 -11 -8 3 -14 -1 -14
-9 0 -8 -4 -15 -8 -15 -5 0 -20 -9 -33 -21 -14 -12 -32 -18 -43 -15 -12 3 -33
-6 -57 -24 -20 -17 -42 -30 -47 -30 -11 0 -199 -146 -275 -212 -21 -18 -47
-36 -58 -40 -10 -4 -24 -19 -31 -33 -6 -14 -17 -25 -24 -25 -7 0 -28 -16 -47
-37 l-35 -36 -27 21 c-15 12 -36 22 -45 22 -10 0 -23 7 -31 16 -17 20 -59 42
-91 46 -33 5 -72 31 -123 84 -23 23 -54 46 -68 49 -15 4 -29 14 -32 23 -6 20
-56 62 -106 89 -19 10 -56 40 -84 66 -27 26 -58 49 -67 52 -9 4 -20 14 -23 23
-3 9 -22 28 -42 42 -20 14 -53 42 -72 62 -20 21 -41 38 -46 38 -6 0 -18 14
-27 30 -10 17 -24 33 -32 36 -8 3 -77 67 -154 142 -155 153 -211 205 -226 212
-11 5 -111 112 -231 246 -33 36 -67 75 -77 84 -9 10 -30 49 -48 87 -17 37 -35
75 -41 83 -5 8 -17 28 -27 44 -9 17 -29 41 -43 55 -15 14 -29 39 -33 54 -4 16
-18 40 -32 54 -14 14 -36 41 -49 61 -13 21 -44 59 -69 86 -25 27 -48 56 -51
65 -3 9 -27 39 -53 67 -68 75 -112 131 -112 144 0 15 -36 63 -77 104 -18 18
-33 37 -33 42 0 6 -11 21 -25 34 -14 13 -25 29 -25 35 0 6 -11 22 -25 35 -14
13 -25 28 -25 33 0 19 -73 127 -86 127 -8 0 -16 11 -20 24 -3 14 -14 32 -25
42 -10 9 -24 36 -30 58 -12 47 -27 68 -40 60 -5 -3 -8 0 -7 7 2 7 -11 22 -29
33 -18 12 -32 29 -33 38 0 9 -5 20 -11 23 -6 4 -8 13 -5 21 3 8 2 13 -2 11 -4
-1 -8 0 -9 3 0 3 -12 27 -26 55 -14 27 -23 53 -21 57 3 4 -2 8 -10 8 -8 0 -18
4 -21 10 -4 6 1 7 12 3 16 -6 16 -5 5 10 -8 8 -19 14 -26 11 -9 -3 -13 3 -13
20 0 14 -28 81 -61 148 -77 159 -118 247 -127 278 -8 28 -26 70 -61 146 -13
28 -24 56 -24 63 0 6 -13 37 -29 69 -16 31 -34 68 -40 82 -6 14 -15 32 -20 40
-6 8 -12 31 -16 51 -3 20 -20 53 -39 75 -26 30 -35 51 -38 89 -5 53 -36 147
-68 206 -11 20 -20 52 -20 71 0 19 -7 43 -15 54 -8 10 -15 31 -15 46 0 14 -11
40 -25 56 -16 19 -27 48 -31 79 -4 26 -13 58 -20 70 -8 12 -14 31 -14 41 0 10
-7 27 -15 38 -8 10 -15 26 -15 35 0 9 -8 27 -19 40 -10 13 -20 35 -23 49 -5
22 -25 74 -65 167 -7 17 -13 45 -13 63 0 17 -11 47 -25 67 -13 20 -22 40 -19
45 3 4 -1 22 -9 40 -8 18 -24 62 -36 98 -13 36 -38 110 -57 165 -19 55 -39
108 -44 117 -5 9 -17 52 -25 95 -9 43 -20 87 -25 98 -9 21 -21 111 -20 154 0
13 -9 39 -20 57 -28 50 -43 110 -45 190 -2 46 -8 79 -19 96 -12 18 -14 32 -8
49 8 20 20 26 83 37 41 7 85 14 99 16 14 1 27 4 30 6 3 1 26 4 51 5 41 2 109
20 134 35 6 4 30 12 55 19 25 7 60 19 78 27 18 8 46 14 63 14 16 0 46 7 66 15
19 8 46 15 58 15 12 0 28 6 34 14 7 8 31 17 54 21 23 3 56 12 72 20 84 36 108
45 128 45 34 0 297 92 331 116 11 8 33 14 48 14 15 0 29 4 33 9 3 5 22 15 43
21 44 13 117 43 188 77 28 13 55 23 60 22 5 -1 20 2 34 8 14 6 42 18 63 26 21
9 57 32 81 52 24 19 48 35 53 35 6 0 29 14 51 30 23 17 46 30 51 30 10 0 95
43 115 58 6 5 29 14 52 20 22 7 49 21 59 32 10 11 25 20 33 20 9 0 34 9 56 19
23 10 59 27 81 36 22 9 47 21 55 26 8 4 33 17 55 28 22 11 81 43 130 71 50 28
106 58 125 67 19 8 53 27 75 42 61 40 72 46 180 100 55 28 124 66 153 86 30
19 57 35 61 35 4 0 22 13 41 30 19 16 40 29 46 30 6 0 17 7 24 15 11 13 170
110 260 158 19 11 42 25 50 32 20 17 202 114 215 115 6 0 33 -19 62 -42z
m-4827 -2658 c0 -5 -5 -10 -11 -10 -5 0 -7 5 -4 10 3 6 8 10 11 10 2 0 4 -4 4
-10z m9067 -386 c-3 -3 -12 -4 -19 -1 -8 3 -5 6 6 6 11 1 17 -2 13 -5z m-597
-474 c0 -5 -5 -10 -11 -10 -5 0 -7 5 -4 10 3 6 8 10 11 10 2 0 4 -4 4 -10z
m587 -615 c-7 -13 -14 -20 -15 -14 -5 14 6 39 17 39 5 0 4 -11 -2 -25z m-30
-110 c-7 -14 -18 -25 -25 -25 -16 0 1 35 20 43 7 3 14 6 15 6 0 1 -4 -10 -10
-24z m-82 -155 c3 -5 1 -10 -4 -10 -6 0 -11 5 -11 10 0 6 2 10 4 10 3 0 8 -4
11 -10z m-7965 -770 c0 -5 -2 -10 -4 -10 -3 0 -8 5 -11 10 -3 6 -1 10 4 10 6
0 11 -4 11 -10z m-6 -26 c23 -23 19 -40 -4 -19 -11 10 -20 22 -20 27 0 12 7
10 24 -8z m1203 -136 c-3 -8 -6 -5 -6 6 -1 11 2 17 5 13 3 -3 4 -12 1 -19z
m-887 -278 c0 -5 -2 -10 -4 -10 -3 0 -8 5 -11 10 -3 6 -1 10 4 10 6 0 11 -4
11 -10z m1861 -1097 c13 -16 12 -17 -3 -4 -10 7 -18 15 -18 17 0 8 8 3 21 -13z
m456 -685 c-3 -8 -6 -5 -6 6 -1 11 2 17 5 13 3 -3 4 -12 1 -19z m1478 -1598
c3 -5 1 -10 -4 -10 -6 0 -11 5 -11 10 0 6 2 10 4 10 3 0 8 -4 11 -10z m-241
-295 c3 -9 0 -15 -9 -15 -8 0 -15 7 -15 15 0 8 4 15 9 15 5 0 11 -7 15 -15z"/>
<path d="M6906 10280 c-12 -38 -13 -59 -4 -62 6 -2 12 -20 13 -40 3 -34 2 -36
-15 -26 -10 6 -16 18 -13 25 3 7 3 13 0 13 -4 0 -15 -20 -26 -45 -11 -25 -31
-60 -43 -78 -28 -40 -48 -73 -93 -159 -19 -36 -39 -69 -45 -73 -5 -3 -10 -13
-10 -21 0 -17 -60 -105 -104 -154 -53 -57 -96 -117 -96 -132 0 -8 -9 -23 -19
-32 -11 -10 -36 -50 -56 -89 -20 -40 -44 -85 -54 -102 -17 -31 -66 -120 -116
-210 -15 -27 -33 -57 -39 -65 -7 -8 -18 -28 -26 -45 -8 -16 -21 -38 -29 -48
-16 -20 -25 -34 -66 -114 -16 -32 -38 -69 -48 -83 -10 -14 -25 -39 -32 -55 -7
-17 -32 -56 -57 -86 -25 -30 -51 -73 -58 -95 -7 -21 -19 -46 -27 -55 -15 -18
-83 -129 -83 -136 0 -3 -10 -19 -22 -36 -13 -16 -32 -47 -43 -68 -23 -44 -127
-199 -164 -246 -50 -61 -95 -126 -116 -164 -58 -110 -142 -236 -181 -275 -23
-22 -66 -84 -99 -142 -11 -20 -32 -43 -47 -51 -16 -9 -28 -19 -28 -23 0 -9
147 -1 220 12 120 21 282 40 338 40 32 0 62 3 66 7 4 4 13 8 19 8 7 0 29 6 50
14 21 7 41 11 44 7 3 -3 -15 -54 -40 -114 -25 -59 -49 -120 -52 -135 -4 -15
-11 -30 -16 -33 -5 -3 -9 -12 -9 -20 0 -22 -96 -218 -114 -233 -9 -8 -16 -20
-16 -27 0 -8 -9 -19 -20 -26 -11 -7 -20 -20 -20 -29 0 -9 -7 -23 -16 -30 -9
-7 -32 -45 -51 -84 -19 -38 -46 -90 -60 -115 -55 -100 -87 -169 -98 -210 -4
-14 -20 -46 -36 -71 -16 -25 -29 -49 -29 -53 0 -5 -13 -25 -28 -45 -16 -20
-53 -85 -83 -146 -29 -60 -64 -124 -76 -141 -13 -17 -23 -36 -23 -42 0 -7 -4
-12 -9 -12 -5 0 -11 -10 -15 -22 -3 -13 -5 -23 -4 -23 7 0 -59 -94 -75 -106
-42 -33 -13 -39 166 -34 275 8 398 15 408 21 9 5 225 21 402 30 49 2 93 7 99
10 6 4 52 8 102 10 50 2 107 8 126 14 19 5 54 10 77 10 l41 0 1 -187 c1 -104
4 -210 6 -238 15 -170 18 -274 17 -560 0 -175 2 -324 6 -330 3 -5 5 -22 3 -37
-1 -18 4 -30 17 -37 15 -8 98 -13 202 -11 8 0 104 -2 213 -4 108 -2 197 1 197
5 0 5 15 9 33 9 42 0 65 17 76 55 l8 30 19 -42 c10 -24 24 -45 32 -48 10 -3
10 0 2 15 -6 11 -8 24 -5 29 3 5 0 11 -7 13 -7 3 -5 7 6 11 9 4 15 3 11 -2 -3
-5 -1 -12 5 -16 6 -4 8 -11 4 -16 -3 -6 4 -13 16 -16 11 -3 19 -11 17 -17 -5
-12 17 -12 143 -2 57 4 58 5 42 14 -9 6 -7 14 9 30 13 15 18 30 14 45 -6 22
-6 22 10 2 16 -20 17 -20 13 0 -2 14 3 20 17 20 11 0 19 5 18 12 -2 7 10 10
30 9 33 -3 33 -2 37 43 5 75 4 710 -2 926 -3 110 -3 217 0 238 4 33 7 37 26
31 32 -11 76 -12 70 -2 -3 4 2 8 10 8 9 0 16 -5 16 -10 0 -6 12 -10 28 -11 65
0 155 -11 162 -20 12 -13 255 -34 375 -32 72 2 184 2 250 2 206 0 379 2 410 5
17 2 42 4 58 4 36 3 34 16 -12 76 -46 61 -131 184 -131 190 0 2 -29 46 -64 97
-70 104 -165 270 -244 428 -29 57 -61 115 -72 129 -11 13 -20 28 -20 32 0 5
-16 32 -36 61 -45 67 -169 324 -195 404 -11 33 -26 69 -34 82 -8 12 -15 27
-15 33 0 6 -10 32 -22 58 -12 26 -23 53 -24 61 -2 7 -7 18 -13 24 -6 6 -11 19
-11 28 0 20 24 19 260 -8 187 -21 461 -40 466 -32 5 8 -66 119 -76 119 -4 0
-13 15 -21 33 -7 17 -25 47 -41 65 -15 18 -28 39 -28 46 0 8 -7 19 -15 26 -7
6 -28 36 -45 66 -17 30 -38 62 -46 72 -19 20 -109 158 -142 216 -13 23 -27 43
-32 44 -6 2 -10 10 -10 17 0 8 -10 22 -23 32 -34 28 -79 89 -135 184 -28 47
-77 121 -109 165 -33 43 -74 106 -92 139 -19 33 -45 74 -58 92 -12 17 -23 37
-23 43 0 12 -39 74 -87 138 -18 24 -33 50 -33 57 0 8 -7 18 -15 22 -8 5 -26
31 -40 58 -15 27 -35 55 -44 62 -10 7 -24 27 -31 45 -8 18 -26 52 -42 75 -27
39 -72 122 -121 218 -11 22 -31 54 -44 72 -12 17 -23 36 -23 41 0 5 -13 20
-29 33 -15 13 -35 38 -44 55 -9 17 -23 36 -31 43 -9 7 -22 25 -29 40 -7 14
-42 82 -77 151 -34 69 -68 132 -75 140 -7 8 -32 53 -56 100 -52 101 -62 113
-77 98 -8 -8 -14 -4 -22 16 -5 15 -14 24 -20 21 -5 -3 -10 -1 -10 4 0 6 5 11
11 11 8 0 7 6 -2 18 -7 9 -1 6 14 -7 15 -14 27 -19 27 -13 0 14 -47 62 -62 62
-7 0 -7 4 0 13 7 8 7 18 2 27 -8 13 -10 12 -14 0z m-1306 -2760 c12 -23 3 -25
-22 -6 -22 16 -23 26 -3 26 8 0 19 -9 25 -20z m820 -2090 c0 -5 -5 -10 -11
-10 -5 0 -7 5 -4 10 3 6 8 10 11 10 2 0 4 -4 4 -10z m380 -988 c0 -24 -1 -25
-14 -7 -8 11 -12 25 -9 32 8 20 23 4 23 -25z"/>
<path d="M10657 8233 c-4 -3 -7 -11 -7 -17 0 -6 5 -5 12 2 6 6 9 14 7 17 -3 3
-9 2 -12 -2z"/>
<path d="M9885 10600 c4 -6 11 -8 16 -5 14 9 11 15 -7 15 -8 0 -12 -5 -9 -10z"/>
<path d="M11465 7279 c-11 -17 1 -21 15 -4 8 9 8 15 2 15 -6 0 -14 -5 -17 -11z"/>
<path d="M11395 7259 c-4 -11 -4 -23 -2 -26 9 -8 24 5 30 27 7 27 -20 27 -28
-1z"/>
<path d="M11445 7239 c-4 -6 -5 -12 -2 -15 2 -3 7 2 10 11 7 17 1 20 -8 4z"/>
<path d="M11382 7038 c-7 -7 -12 -16 -12 -21 0 -6 -8 -16 -17 -23 -17 -13 -17
-13 -1 -14 10 0 25 14 33 31 18 33 16 46 -3 27z"/>
<path d="M11307 6895 c-4 -8 -2 -17 2 -20 5 -2 11 4 14 15 6 23 -8 27 -16 5z"/>
<path d="M11276 6845 c-3 -9 0 -15 9 -15 16 0 20 16 6 24 -5 3 -11 -1 -15 -9z"/>
<path d="M11260 6801 c0 -5 -2 -16 -5 -24 -4 -8 0 -14 9 -14 8 0 16 11 19 24
3 15 -1 23 -9 23 -8 0 -14 -4 -14 -9z"/>
<path d="M7280 1870 c0 -5 5 -10 11 -10 5 0 7 5 4 10 -3 6 -8 10 -11 10 -2 0
-4 -4 -4 -10z"/>
<path d="M7275 1799 c-10 -15 -2 -19 23 -12 12 3 19 9 16 14 -7 12 -31 11 -39
-2z"/>
<path d="M7199 1781 c-21 -20 -51 -91 -39 -91 8 0 63 102 57 106 -1 1 -9 -6
-18 -15z"/>
</g>
</svg>
