<?xml version="1.0" standalone="no"?>
<!DOCTYPE svg PUBLIC "-//W3C//DTD SVG 20010904//EN"
 "http://www.w3.org/TR/2001/REC-SVG-20010904/DTD/svg10.dtd">
<svg version="1.0" xmlns="http://www.w3.org/2000/svg"
 width="700.000000pt" height="700.000000pt" viewBox="0 0 700.000000 700.000000"
 preserveAspectRatio="xMidYMid meet">
<metadata>
Created by potrace 1.14, written by Peter Selinger 2001-2017
</metadata>
<g transform="translate(0.000000,700.000000) scale(0.100000,-0.100000)"
fill="#000000" stroke="none">
<path d="M3350 6473 c-323 -238 -679 -456 -1050 -642 -277 -138 -432 -205
-666 -287 -318 -111 -532 -155 -881 -182 -128 -10 -236 -21 -240 -25 -18 -18
67 -501 142 -802 200 -810 511 -1579 896 -2217 389 -643 892 -1196 1429 -1569
100 -70 336 -214 431 -264 l57 -29 153 88 c383 219 681 454 1000 784 672 695
1189 1634 1544 2802 102 335 178 667 226 988 25 167 30 215 20 221 -7 5 -65
11 -129 15 -395 22 -641 70 -982 189 -238 83 -392 149 -670 288 -409 205 -755
420 -1135 705 l-30 22 -115 -85z m188 -692 c340 -230 924 -543 1287 -689 278
-112 572 -205 798 -252 80 -17 107 -26 107 -38 0 -21 -63 -269 -110 -433 -228
-791 -575 -1535 -982 -2106 -254 -356 -580 -699 -886 -931 -158 -121 -285
-201 -301 -192 -44 23 -278 193 -366 265 -832 684 -1465 1781 -1836 3185 -27
102 -49 195 -49 206 0 17 8 23 38 28 90 17 363 89 494 132 488 159 1066 441
1558 762 85 55 163 101 173 101 10 1 44 -16 75 -38z"/>
<path d="M3375 5073 c-253 -429 -667 -1099 -808 -1306 -44 -64 -77 -120 -73
-124 9 -9 90 -5 234 13 68 9 126 14 128 11 11 -11 -169 -385 -270 -560 -31
-53 -96 -160 -146 -237 l-89 -140 132 0 c202 0 531 29 645 57 l22 5 0 -376 0
-376 313 2 312 3 3 374 2 373 23 -5 c49 -12 250 -37 376 -47 150 -11 391 -14
391 -4 0 4 -38 66 -84 138 -113 178 -185 304 -272 476 -78 155 -147 310 -141
317 2 2 60 -3 128 -11 146 -18 226 -22 235 -13 3 3 -39 73 -93 154 -138 204
-308 479 -609 980 -142 236 -260 432 -264 436 -5 5 -47 -58 -95 -140z"/>
</g>
</svg>
